<?xml version="1.0" standalone="no"?>
<!DOCTYPE svg PUBLIC "-//W3C//DTD SVG 20010904//EN"
 "http://www.w3.org/TR/2001/REC-SVG-20010904/DTD/svg10.dtd">
<svg version="1.0" xmlns="http://www.w3.org/2000/svg"
 width="672.000000pt" height="672.000000pt" viewBox="0 0 672.000000 672.000000"
 preserveAspectRatio="xMidYMid meet">

<g transform="translate(0.000000,672.000000) scale(0.100000,-0.100000)"
fill="#000000" stroke="none">
<path d="M2240 5460 l0 -140 -140 0 -140 0 0 -140 0 -140 -140 0 -140 0 0
-140 0 -140 -140 0 -140 0 0 -140 0 -140 140 0 140 0 0 -140 0 -140 -140 0
-140 0 0 -140 0 -140 280 0 280 0 0 -280 0 -280 -140 0 -140 0 0 -420 0 -420
140 0 140 0 0 -560 0 -560 140 0 140 0 0 -700 0 -700 700 0 700 0 0 280 0 280
140 0 140 0 0 140 0 140 140 0 140 0 0 -140 0 -140 140 0 140 0 0 -139 0 -138
131 -5 c71 -3 133 -9 137 -13 4 -4 9 -65 11 -136 l3 -129 559 0 559 0 0 140 0
140 140 0 140 0 0 129 c0 93 4 132 13 138 6 4 69 9 140 11 l127 4 0 419 0 419
-700 0 -700 0 0 -280 0 -280 -140 0 -140 0 0 140 0 140 -140 0 -140 0 0 140 0
140 140 0 140 0 0 1260 0 1260 140 0 140 0 0 140 0 140 -141 0 -142 0 5 271
c4 215 8 273 19 280 8 5 69 9 137 9 l122 0 0 140 0 140 -280 0 -280 0 0 280 0
280 -140 0 -140 0 0 -140 0 -140 -140 0 -140 0 0 140 0 140 -840 0 -840 0 0
-140z"/>
</g>
</svg>
